<?xml version="1.0" encoding="utf-8"?><svg version="1.1" xmlns="http://www.w3.org/2000/svg" xmlns:xlink="http://www.w3.org/1999/xlink" width="490px" height="490px" viewBox="0 0 490 490"><rect x="0" y="0" width="70" height="10"></rect><rect x="90" y="0" width="10" height="10"></rect><rect x="110" y="0" width="20" height="10"></rect><rect x="180" y="0" width="10" height="10"></rect><rect x="210" y="0" width="10" height="10"></rect><rect x="230" y="0" width="20" height="10"></rect><rect x="260" y="0" width="10" height="10"></rect><rect x="290" y="0" width="20" height="10"></rect><rect x="360" y="0" width="20" height="10"></rect><rect x="400" y="0" width="10" height="10"></rect><rect x="420" y="0" width="70" height="10"></rect><rect x="0" y="10" width="10" height="10"></rect><rect x="60" y="10" width="10" height="10"></rect><rect x="90" y="10" width="30" height="10"></rect><rect x="130" y="10" width="30" height="10"></rect><rect x="170" y="10" width="50" height="10"></rect><rect x="250" y="10" width="50" height="10"></rect><rect x="310" y="10" width="40" height="10"></rect><rect x="360" y="10" width="50" height="10"></rect><rect x="420" y="10" width="10" height="10"></rect><rect x="480" y="10" width="10" height="10"></rect><rect x="0" y="20" width="10" height="10"></rect><rect x="20" y="20" width="30" height="10"></rect><rect x="60" y="20" width="10" height="10"></rect><rect x="100" y="20" width="20" height="10"></rect><rect x="150" y="20" width="10" height="10"></rect><rect x="170" y="20" width="40" height="10"></rect><rect x="220" y="20" width="50" height="10"></rect><rect x="300" y="20" width="10" height="10"></rect><rect x="340" y="20" width="40" height="10"></rect><rect x="390" y="20" width="20" height="10"></rect><rect x="420" y="20" width="10" height="10"></rect><rect x="440" y="20" width="30" height="10"></rect><rect x="480" y="20" width="10" height="10"></rect><rect x="0" y="30" width="10" height="10"></rect><rect x="20" y="30" width="30" height="10"></rect><rect x="60" y="30" width="10" height="10"></rect><rect x="100" y="30" width="10" height="10"></rect><rect x="160" y="30" width="20" height="10"></rect><rect x="190" y="30" width="10" height="10"></rect><rect x="210" y="30" width="20" height="10"></rect><rect x="240" y="30" width="20" height="10"></rect><rect x="270" y="30" width="10" height="10"></rect><rect x="300" y="30" width="10" height="10"></rect><rect x="320" y="30" width="20" height="10"></rect><rect x="350" y="30" width="20" height="10"></rect><rect x="390" y="30" width="10" height="10"></rect><rect x="420" y="30" width="10" height="10"></rect><rect x="440" y="30" width="30" height="10"></rect><rect x="480" y="30" width="10" height="10"></rect><rect x="0" y="40" width="10" height="10"></rect><rect x="20" y="40" width="30" height="10"></rect><rect x="60" y="40" width="10" height="10"></rect><rect x="80" y="40" width="20" height="10"></rect><rect x="110" y="40" width="10" height="10"></rect><rect x="130" y="40" width="10" height="10"></rect><rect x="150" y="40" width="20" height="10"></rect><rect x="220" y="40" width="50" height="10"></rect><rect x="290" y="40" width="10" height="10"></rect><rect x="310" y="40" width="10" height="10"></rect><rect x="350" y="40" width="10" height="10"></rect><rect x="370" y="40" width="10" height="10"></rect><rect x="420" y="40" width="10" height="10"></rect><rect x="440" y="40" width="30" height="10"></rect><rect x="480" y="40" width="10" height="10"></rect><rect x="0" y="50" width="10" height="10"></rect><rect x="60" y="50" width="10" height="10"></rect><rect x="100" y="50" width="20" height="10"></rect><rect x="130" y="50" width="30" height="10"></rect><rect x="170" y="50" width="20" height="10"></rect><rect x="220" y="50" width="10" height="10"></rect><rect x="260" y="50" width="60" height="10"></rect><rect x="330" y="50" width="10" height="10"></rect><rect x="380" y="50" width="10" height="10"></rect><rect x="420" y="50" width="10" height="10"></rect><rect x="480" y="50" width="10" height="10"></rect><rect x="0" y="60" width="70" height="10"></rect><rect x="80" y="60" width="10" height="10"></rect><rect x="100" y="60" width="10" height="10"></rect><rect x="120" y="60" width="10" height="10"></rect><rect x="140" y="60" width="10" height="10"></rect><rect x="160" y="60" width="10" height="10"></rect><rect x="180" y="60" width="10" height="10"></rect><rect x="200" y="60" width="10" height="10"></rect><rect x="220" y="60" width="10" height="10"></rect><rect x="240" y="60" width="10" height="10"></rect><rect x="260" y="60" width="10" height="10"></rect><rect x="280" y="60" width="10" height="10"></rect><rect x="300" y="60" width="10" height="10"></rect><rect x="320" y="60" width="10" height="10"></rect><rect x="340" y="60" width="10" height="10"></rect><rect x="360" y="60" width="10" height="10"></rect><rect x="380" y="60" width="10" height="10"></rect><rect x="400" y="60" width="10" height="10"></rect><rect x="420" y="60" width="70" height="10"></rect><rect x="80" y="70" width="20" height="10"></rect><rect x="110" y="70" width="20" height="10"></rect><rect x="150" y="70" width="10" height="10"></rect><rect x="170" y="70" width="30" height="10"></rect><rect x="210" y="70" width="20" height="10"></rect><rect x="260" y="70" width="30" height="10"></rect><rect x="300" y="70" width="30" height="10"></rect><rect x="340" y="70" width="20" height="10"></rect><rect x="370" y="70" width="20" height="10"></rect><rect x="400" y="70" width="10" height="10"></rect><rect x="20" y="80" width="20" height="10"></rect><rect x="60" y="80" width="40" height="10"></rect><rect x="120" y="80" width="10" height="10"></rect><rect x="140" y="80" width="20" height="10"></rect><rect x="180" y="80" width="20" height="10"></rect><rect x="210" y="80" width="70" height="10"></rect><rect x="290" y="80" width="10" height="10"></rect><rect x="310" y="80" width="10" height="10"></rect><rect x="340" y="80" width="30" height="10"></rect><rect x="380" y="80" width="10" height="10"></rect><rect x="410" y="80" width="20" height="10"></rect><rect x="440" y="80" width="10" height="10"></rect><rect x="20" y="90" width="20" height="10"></rect><rect x="50" y="90" width="10" height="10"></rect><rect x="90" y="90" width="10" height="10"></rect><rect x="110" y="90" width="20" height="10"></rect><rect x="140" y="90" width="10" height="10"></rect><rect x="160" y="90" width="10" height="10"></rect><rect x="180" y="90" width="10" height="10"></rect><rect x="200" y="90" width="10" height="10"></rect><rect x="220" y="90" width="10" height="10"></rect><rect x="240" y="90" width="20" height="10"></rect><rect x="290" y="90" width="30" height="10"></rect><rect x="410" y="90" width="20" height="10"></rect><rect x="440" y="90" width="40" height="10"></rect><rect x="0" y="100" width="10" height="10"></rect><rect x="20" y="100" width="20" height="10"></rect><rect x="50" y="100" width="40" height="10"></rect><rect x="120" y="100" width="10" height="10"></rect><rect x="150" y="100" width="10" height="10"></rect><rect x="170" y="100" width="20" height="10"></rect><rect x="220" y="100" width="10" height="10"></rect><rect x="240" y="100" width="10" height="10"></rect><rect x="270" y="100" width="10" height="10"></rect><rect x="290" y="100" width="10" height="10"></rect><rect x="310" y="100" width="40" height="10"></rect><rect x="360" y="100" width="20" height="10"></rect><rect x="420" y="100" width="10" height="10"></rect><rect x="450" y="100" width="10" height="10"></rect><rect x="470" y="100" width="10" height="10"></rect><rect x="20" y="110" width="10" height="10"></rect><rect x="50" y="110" width="10" height="10"></rect><rect x="90" y="110" width="20" height="10"></rect><rect x="140" y="110" width="20" height="10"></rect><rect x="210" y="110" width="10" height="10"></rect><rect x="260" y="110" width="10" height="10"></rect><rect x="290" y="110" width="10" height="10"></rect><rect x="310" y="110" width="10" height="10"></rect><rect x="330" y="110" width="10" height="10"></rect><rect x="350" y="110" width="10" height="10"></rect><rect x="370" y="110" width="40" height="10"></rect><rect x="440" y="110" width="40" height="10"></rect><rect x="0" y="120" width="20" height="10"></rect><rect x="40" y="120" width="10" height="10"></rect><rect x="60" y="120" width="20" height="10"></rect><rect x="90" y="120" width="10" height="10"></rect><rect x="120" y="120" width="30" height="10"></rect><rect x="180" y="120" width="10" height="10"></rect><rect x="200" y="120" width="10" height="10"></rect><rect x="220" y="120" width="10" height="10"></rect><rect x="250" y="120" width="20" height="10"></rect><rect x="310" y="120" width="10" height="10"></rect><rect x="330" y="120" width="20" height="10"></rect><rect x="360" y="120" width="10" height="10"></rect><rect x="400" y="120" width="10" height="10"></rect><rect x="420" y="120" width="10" height="10"></rect><rect x="460" y="120" width="10" height="10"></rect><rect x="480" y="120" width="10" height="10"></rect><rect x="20" y="130" width="40" height="10"></rect><rect x="70" y="130" width="10" height="10"></rect><rect x="90" y="130" width="90" height="10"></rect><rect x="200" y="130" width="10" height="10"></rect><rect x="230" y="130" width="20" height="10"></rect><rect x="270" y="130" width="10" height="10"></rect><rect x="310" y="130" width="10" height="10"></rect><rect x="330" y="130" width="20" height="10"></rect><rect x="370" y="130" width="30" height="10"></rect><rect x="440" y="130" width="10" height="10"></rect><rect x="480" y="130" width="10" height="10"></rect><rect x="20" y="140" width="10" height="10"></rect><rect x="40" y="140" width="10" height="10"></rect><rect x="60" y="140" width="20" height="10"></rect><rect x="90" y="140" width="10" height="10"></rect><rect x="130" y="140" width="40" height="10"></rect><rect x="190" y="140" width="30" height="10"></rect><rect x="230" y="140" width="20" height="10"></rect><rect x="260" y="140" width="10" height="10"></rect><rect x="290" y="140" width="10" height="10"></rect><rect x="320" y="140" width="10" height="10"></rect><rect x="340" y="140" width="10" height="10"></rect><rect x="370" y="140" width="30" height="10"></rect><rect x="410" y="140" width="20" height="10"></rect><rect x="450" y="140" width="20" height="10"></rect><rect x="0" y="150" width="10" height="10"></rect><rect x="20" y="150" width="10" height="10"></rect><rect x="40" y="150" width="10" height="10"></rect><rect x="70" y="150" width="30" height="10"></rect><rect x="130" y="150" width="20" height="10"></rect><rect x="190" y="150" width="20" height="10"></rect><rect x="240" y="150" width="20" height="10"></rect><rect x="290" y="150" width="10" height="10"></rect><rect x="330" y="150" width="10" height="10"></rect><rect x="390" y="150" width="10" height="10"></rect><rect x="410" y="150" width="10" height="10"></rect><rect x="430" y="150" width="30" height="10"></rect><rect x="0" y="160" width="10" height="10"></rect><rect x="20" y="160" width="20" height="10"></rect><rect x="60" y="160" width="10" height="10"></rect><rect x="80" y="160" width="20" height="10"></rect><rect x="120" y="160" width="10" height="10"></rect><rect x="150" y="160" width="10" height="10"></rect><rect x="170" y="160" width="70" height="10"></rect><rect x="250" y="160" width="20" height="10"></rect><rect x="280" y="160" width="10" height="10"></rect><rect x="310" y="160" width="10" height="10"></rect><rect x="330" y="160" width="10" height="10"></rect><rect x="370" y="160" width="20" height="10"></rect><rect x="410" y="160" width="50" height="10"></rect><rect x="480" y="160" width="10" height="10"></rect><rect x="30" y="170" width="20" height="10"></rect><rect x="90" y="170" width="10" height="10"></rect><rect x="140" y="170" width="20" height="10"></rect><rect x="210" y="170" width="30" height="10"></rect><rect x="280" y="170" width="10" height="10"></rect><rect x="300" y="170" width="20" height="10"></rect><rect x="340" y="170" width="10" height="10"></rect><rect x="360" y="170" width="20" height="10"></rect><rect x="390" y="170" width="10" height="10"></rect><rect x="410" y="170" width="30" height="10"></rect><rect x="450" y="170" width="10" height="10"></rect><rect x="470" y="170" width="20" height="10"></rect><rect x="20" y="180" width="30" height="10"></rect><rect x="60" y="180" width="10" height="10"></rect><rect x="120" y="180" width="10" height="10"></rect><rect x="140" y="180" width="40" height="10"></rect><rect x="190" y="180" width="10" height="10"></rect><rect x="210" y="180" width="10" height="10"></rect><rect x="240" y="180" width="40" height="10"></rect><rect x="290" y="180" width="10" height="10"></rect><rect x="310" y="180" width="10" height="10"></rect><rect x="360" y="180" width="20" height="10"></rect><rect x="390" y="180" width="20" height="10"></rect><rect x="420" y="180" width="10" height="10"></rect><rect x="440" y="180" width="30" height="10"></rect><rect x="480" y="180" width="10" height="10"></rect><rect x="0" y="190" width="10" height="10"></rect><rect x="20" y="190" width="10" height="10"></rect><rect x="50" y="190" width="10" height="10"></rect><rect x="70" y="190" width="20" height="10"></rect><rect x="100" y="190" width="10" height="10"></rect><rect x="120" y="190" width="10" height="10"></rect><rect x="140" y="190" width="20" height="10"></rect><rect x="180" y="190" width="40" height="10"></rect><rect x="230" y="190" width="20" height="10"></rect><rect x="260" y="190" width="40" height="10"></rect><rect x="310" y="190" width="20" height="10"></rect><rect x="360" y="190" width="10" height="10"></rect><rect x="380" y="190" width="40" height="10"></rect><rect x="450" y="190" width="10" height="10"></rect><rect x="470" y="190" width="10" height="10"></rect><rect x="30" y="200" width="80" height="10"></rect><rect x="130" y="200" width="10" height="10"></rect><rect x="150" y="200" width="30" height="10"></rect><rect x="210" y="200" width="20" height="10"></rect><rect x="250" y="200" width="10" height="10"></rect><rect x="270" y="200" width="30" height="10"></rect><rect x="320" y="200" width="10" height="10"></rect><rect x="340" y="200" width="10" height="10"></rect><rect x="370" y="200" width="10" height="10"></rect><rect x="420" y="200" width="10" height="10"></rect><rect x="450" y="200" width="10" height="10"></rect><rect x="470" y="200" width="20" height="10"></rect><rect x="20" y="210" width="10" height="10"></rect><rect x="40" y="210" width="10" height="10"></rect><rect x="80" y="210" width="10" height="10"></rect><rect x="100" y="210" width="30" height="10"></rect><rect x="210" y="210" width="30" height="10"></rect><rect x="250" y="210" width="10" height="10"></rect><rect x="290" y="210" width="30" height="10"></rect><rect x="330" y="210" width="10" height="10"></rect><rect x="420" y="210" width="20" height="10"></rect><rect x="450" y="210" width="10" height="10"></rect><rect x="0" y="220" width="90" height="10"></rect><rect x="100" y="220" width="10" height="10"></rect><rect x="130" y="220" width="20" height="10"></rect><rect x="160" y="220" width="10" height="10"></rect><rect x="190" y="220" width="10" height="10"></rect><rect x="210" y="220" width="70" height="10"></rect><rect x="330" y="220" width="30" height="10"></rect><rect x="370" y="220" width="10" height="10"></rect><rect x="390" y="220" width="80" height="10"></rect><rect x="10" y="230" width="10" height="10"></rect><rect x="30" y="230" width="20" height="10"></rect><rect x="80" y="230" width="30" height="10"></rect><rect x="120" y="230" width="40" height="10"></rect><rect x="170" y="230" width="10" height="10"></rect><rect x="200" y="230" width="10" height="10"></rect><rect x="220" y="230" width="10" height="10"></rect><rect x="260" y="230" width="60" height="10"></rect><rect x="360" y="230" width="30" height="10"></rect><rect x="400" y="230" width="10" height="10"></rect><rect x="440" y="230" width="10" height="10"></rect><rect x="460" y="230" width="30" height="10"></rect><rect x="20" y="240" width="30" height="10"></rect><rect x="60" y="240" width="10" height="10"></rect><rect x="80" y="240" width="20" height="10"></rect><rect x="110" y="240" width="10" height="10"></rect><rect x="140" y="240" width="30" height="10"></rect><rect x="190" y="240" width="10" height="10"></rect><rect x="220" y="240" width="10" height="10"></rect><rect x="240" y="240" width="10" height="10"></rect><rect x="260" y="240" width="150" height="10"></rect><rect x="420" y="240" width="10" height="10"></rect><rect x="440" y="240" width="10" height="10"></rect><rect x="460" y="240" width="20" height="10"></rect><rect x="10" y="250" width="40" height="10"></rect><rect x="80" y="250" width="10" height="10"></rect><rect x="160" y="250" width="10" height="10"></rect><rect x="180" y="250" width="20" height="10"></rect><rect x="220" y="250" width="10" height="10"></rect><rect x="260" y="250" width="20" height="10"></rect><rect x="290" y="250" width="20" height="10"></rect><rect x="330" y="250" width="10" height="10"></rect><rect x="380" y="250" width="30" height="10"></rect><rect x="440" y="250" width="20" height="10"></rect><rect x="470" y="250" width="10" height="10"></rect><rect x="0" y="260" width="10" height="10"></rect><rect x="30" y="260" width="60" height="10"></rect><rect x="100" y="260" width="30" height="10"></rect><rect x="150" y="260" width="10" height="10"></rect><rect x="170" y="260" width="20" height="10"></rect><rect x="210" y="260" width="70" height="10"></rect><rect x="300" y="260" width="10" height="10"></rect><rect x="320" y="260" width="10" height="10"></rect><rect x="350" y="260" width="10" height="10"></rect><rect x="380" y="260" width="10" height="10"></rect><rect x="400" y="260" width="60" height="10"></rect><rect x="470" y="260" width="20" height="10"></rect><rect x="30" y="270" width="20" height="10"></rect><rect x="70" y="270" width="30" height="10"></rect><rect x="130" y="270" width="10" height="10"></rect><rect x="160" y="270" width="50" height="10"></rect><rect x="230" y="270" width="10" height="10"></rect><rect x="260" y="270" width="10" height="10"></rect><rect x="280" y="270" width="10" height="10"></rect><rect x="300" y="270" width="20" height="10"></rect><rect x="350" y="270" width="10" height="10"></rect><rect x="400" y="270" width="20" height="10"></rect><rect x="430" y="270" width="10" height="10"></rect><rect x="450" y="270" width="10" height="10"></rect><rect x="10" y="280" width="30" height="10"></rect><rect x="60" y="280" width="40" height="10"></rect><rect x="110" y="280" width="10" height="10"></rect><rect x="130" y="280" width="10" height="10"></rect><rect x="160" y="280" width="10" height="10"></rect><rect x="180" y="280" width="70" height="10"></rect><rect x="260" y="280" width="20" height="10"></rect><rect x="320" y="280" width="20" height="10"></rect><rect x="350" y="280" width="10" height="10"></rect><rect x="380" y="280" width="10" height="10"></rect><rect x="410" y="280" width="60" height="10"></rect><rect x="480" y="280" width="10" height="10"></rect><rect x="10" y="290" width="10" height="10"></rect><rect x="30" y="290" width="30" height="10"></rect><rect x="90" y="290" width="10" height="10"></rect><rect x="110" y="290" width="10" height="10"></rect><rect x="130" y="290" width="50" height="10"></rect><rect x="200" y="290" width="20" height="10"></rect><rect x="240" y="290" width="10" height="10"></rect><rect x="300" y="290" width="10" height="10"></rect><rect x="330" y="290" width="30" height="10"></rect><rect x="370" y="290" width="10" height="10"></rect><rect x="430" y="290" width="10" height="10"></rect><rect x="460" y="290" width="30" height="10"></rect><rect x="10" y="300" width="10" height="10"></rect><rect x="40" y="300" width="30" height="10"></rect><rect x="80" y="300" width="10" height="10"></rect><rect x="100" y="300" width="10" height="10"></rect><rect x="140" y="300" width="70" height="10"></rect><rect x="240" y="300" width="10" height="10"></rect><rect x="260" y="300" width="50" height="10"></rect><rect x="340" y="300" width="50" height="10"></rect><rect x="420" y="300" width="20" height="10"></rect><rect x="460" y="300" width="30" height="10"></rect><rect x="10" y="310" width="10" height="10"></rect><rect x="30" y="310" width="20" height="10"></rect><rect x="100" y="310" width="10" height="10"></rect><rect x="160" y="310" width="30" height="10"></rect><rect x="200" y="310" width="10" height="10"></rect><rect x="220" y="310" width="10" height="10"></rect><rect x="260" y="310" width="10" height="10"></rect><rect x="280" y="310" width="60" height="10"></rect><rect x="370" y="310" width="40" height="10"></rect><rect x="420" y="310" width="10" height="10"></rect><rect x="440" y="310" width="20" height="10"></rect><rect x="470" y="310" width="20" height="10"></rect><rect x="20" y="320" width="10" height="10"></rect><rect x="50" y="320" width="20" height="10"></rect><rect x="100" y="320" width="10" height="10"></rect><rect x="120" y="320" width="10" height="10"></rect><rect x="150" y="320" width="20" height="10"></rect><rect x="210" y="320" width="10" height="10"></rect><rect x="250" y="320" width="20" height="10"></rect><rect x="280" y="320" width="40" height="10"></rect><rect x="340" y="320" width="10" height="10"></rect><rect x="410" y="320" width="10" height="10"></rect><rect x="440" y="320" width="20" height="10"></rect><rect x="470" y="320" width="10" height="10"></rect><rect x="0" y="330" width="10" height="10"></rect><rect x="30" y="330" width="30" height="10"></rect><rect x="70" y="330" width="40" height="10"></rect><rect x="120" y="330" width="10" height="10"></rect><rect x="140" y="330" width="10" height="10"></rect><rect x="160" y="330" width="30" height="10"></rect><rect x="210" y="330" width="30" height="10"></rect><rect x="270" y="330" width="30" height="10"></rect><rect x="310" y="330" width="10" height="10"></rect><rect x="350" y="330" width="30" height="10"></rect><rect x="390" y="330" width="30" height="10"></rect><rect x="450" y="330" width="10" height="10"></rect><rect x="470" y="330" width="10" height="10"></rect><rect x="0" y="340" width="10" height="10"></rect><rect x="30" y="340" width="20" height="10"></rect><rect x="60" y="340" width="30" height="10"></rect><rect x="100" y="340" width="10" height="10"></rect><rect x="120" y="340" width="20" height="10"></rect><rect x="180" y="340" width="10" height="10"></rect><rect x="200" y="340" width="10" height="10"></rect><rect x="220" y="340" width="40" height="10"></rect><rect x="270" y="340" width="30" height="10"></rect><rect x="320" y="340" width="10" height="10"></rect><rect x="340" y="340" width="20" height="10"></rect><rect x="370" y="340" width="10" height="10"></rect><rect x="400" y="340" width="10" height="10"></rect><rect x="430" y="340" width="10" height="10"></rect><rect x="450" y="340" width="20" height="10"></rect><rect x="10" y="350" width="10" height="10"></rect><rect x="30" y="350" width="10" height="10"></rect><rect x="50" y="350" width="10" height="10"></rect><rect x="100" y="350" width="10" height="10"></rect><rect x="120" y="350" width="10" height="10"></rect><rect x="160" y="350" width="30" height="10"></rect><rect x="200" y="350" width="10" height="10"></rect><rect x="240" y="350" width="20" height="10"></rect><rect x="270" y="350" width="50" height="10"></rect><rect x="340" y="350" width="10" height="10"></rect><rect x="380" y="350" width="30" height="10"></rect><rect x="420" y="350" width="10" height="10"></rect><rect x="450" y="350" width="30" height="10"></rect><rect x="10" y="360" width="20" height="10"></rect><rect x="40" y="360" width="10" height="10"></rect><rect x="60" y="360" width="20" height="10"></rect><rect x="110" y="360" width="20" height="10"></rect><rect x="150" y="360" width="10" height="10"></rect><rect x="200" y="360" width="20" height="10"></rect><rect x="250" y="360" width="50" height="10"></rect><rect x="310" y="360" width="20" height="10"></rect><rect x="350" y="360" width="10" height="10"></rect><rect x="390" y="360" width="10" height="10"></rect><rect x="410" y="360" width="40" height="10"></rect><rect x="460" y="360" width="30" height="10"></rect><rect x="0" y="370" width="20" height="10"></rect><rect x="30" y="370" width="10" height="10"></rect><rect x="80" y="370" width="10" height="10"></rect><rect x="100" y="370" width="10" height="10"></rect><rect x="130" y="370" width="10" height="10"></rect><rect x="170" y="370" width="10" height="10"></rect><rect x="200" y="370" width="60" height="10"></rect><rect x="350" y="370" width="20" height="10"></rect><rect x="380" y="370" width="20" height="10"></rect><rect x="410" y="370" width="80" height="10"></rect><rect x="10" y="380" width="10" height="10"></rect><rect x="50" y="380" width="20" height="10"></rect><rect x="80" y="380" width="10" height="10"></rect><rect x="100" y="380" width="10" height="10"></rect><rect x="130" y="380" width="10" height="10"></rect><rect x="190" y="380" width="20" height="10"></rect><rect x="220" y="380" width="10" height="10"></rect><rect x="260" y="380" width="10" height="10"></rect><rect x="280" y="380" width="10" height="10"></rect><rect x="320" y="380" width="60" height="10"></rect><rect x="410" y="380" width="10" height="10"></rect><rect x="430" y="380" width="10" height="10"></rect><rect x="470" y="380" width="10" height="10"></rect><rect x="10" y="390" width="30" height="10"></rect><rect x="70" y="390" width="10" height="10"></rect><rect x="90" y="390" width="10" height="10"></rect><rect x="110" y="390" width="10" height="10"></rect><rect x="130" y="390" width="20" height="10"></rect><rect x="170" y="390" width="10" height="10"></rect><rect x="200" y="390" width="20" height="10"></rect><rect x="230" y="390" width="20" height="10"></rect><rect x="270" y="390" width="10" height="10"></rect><rect x="320" y="390" width="10" height="10"></rect><rect x="340" y="390" width="20" height="10"></rect><rect x="370" y="390" width="20" height="10"></rect><rect x="430" y="390" width="10" height="10"></rect><rect x="460" y="390" width="20" height="10"></rect><rect x="0" y="400" width="30" height="10"></rect><rect x="60" y="400" width="10" height="10"></rect><rect x="80" y="400" width="10" height="10"></rect><rect x="100" y="400" width="10" height="10"></rect><rect x="150" y="400" width="10" height="10"></rect><rect x="170" y="400" width="40" height="10"></rect><rect x="220" y="400" width="50" height="10"></rect><rect x="280" y="400" width="50" height="10"></rect><rect x="340" y="400" width="20" height="10"></rect><rect x="400" y="400" width="50" height="10"></rect><rect x="80" y="410" width="10" height="10"></rect><rect x="110" y="410" width="10" height="10"></rect><rect x="160" y="410" width="10" height="10"></rect><rect x="210" y="410" width="20" height="10"></rect><rect x="260" y="410" width="30" height="10"></rect><rect x="310" y="410" width="10" height="10"></rect><rect x="330" y="410" width="10" height="10"></rect><rect x="380" y="410" width="30" height="10"></rect><rect x="440" y="410" width="10" height="10"></rect><rect x="460" y="410" width="10" height="10"></rect><rect x="480" y="410" width="10" height="10"></rect><rect x="0" y="420" width="70" height="10"></rect><rect x="80" y="420" width="10" height="10"></rect><rect x="160" y="420" width="10" height="10"></rect><rect x="200" y="420" width="30" height="10"></rect><rect x="240" y="420" width="10" height="10"></rect><rect x="260" y="420" width="10" height="10"></rect><rect x="280" y="420" width="20" height="10"></rect><rect x="310" y="420" width="10" height="10"></rect><rect x="330" y="420" width="10" height="10"></rect><rect x="390" y="420" width="20" height="10"></rect><rect x="420" y="420" width="10" height="10"></rect><rect x="440" y="420" width="20" height="10"></rect><rect x="470" y="420" width="20" height="10"></rect><rect x="0" y="430" width="10" height="10"></rect><rect x="60" y="430" width="10" height="10"></rect><rect x="120" y="430" width="10" height="10"></rect><rect x="150" y="430" width="20" height="10"></rect><rect x="180" y="430" width="10" height="10"></rect><rect x="200" y="430" width="30" height="10"></rect><rect x="260" y="430" width="20" height="10"></rect><rect x="300" y="430" width="20" height="10"></rect><rect x="330" y="430" width="10" height="10"></rect><rect x="360" y="430" width="10" height="10"></rect><rect x="380" y="430" width="10" height="10"></rect><rect x="400" y="430" width="10" height="10"></rect><rect x="440" y="430" width="20" height="10"></rect><rect x="470" y="430" width="10" height="10"></rect><rect x="0" y="440" width="10" height="10"></rect><rect x="20" y="440" width="30" height="10"></rect><rect x="60" y="440" width="10" height="10"></rect><rect x="90" y="440" width="10" height="10"></rect><rect x="130" y="440" width="40" height="10"></rect><rect x="190" y="440" width="20" height="10"></rect><rect x="220" y="440" width="60" height="10"></rect><rect x="290" y="440" width="10" height="10"></rect><rect x="330" y="440" width="10" height="10"></rect><rect x="350" y="440" width="10" height="10"></rect><rect x="370" y="440" width="20" height="10"></rect><rect x="400" y="440" width="60" height="10"></rect><rect x="470" y="440" width="10" height="10"></rect><rect x="0" y="450" width="10" height="10"></rect><rect x="20" y="450" width="30" height="10"></rect><rect x="60" y="450" width="10" height="10"></rect><rect x="80" y="450" width="20" height="10"></rect><rect x="110" y="450" width="20" height="10"></rect><rect x="140" y="450" width="20" height="10"></rect><rect x="170" y="450" width="20" height="10"></rect><rect x="220" y="450" width="10" height="10"></rect><rect x="240" y="450" width="30" height="10"></rect><rect x="280" y="450" width="20" height="10"></rect><rect x="310" y="450" width="10" height="10"></rect><rect x="370" y="450" width="10" height="10"></rect><rect x="430" y="450" width="20" height="10"></rect><rect x="470" y="450" width="10" height="10"></rect><rect x="0" y="460" width="10" height="10"></rect><rect x="20" y="460" width="30" height="10"></rect><rect x="60" y="460" width="10" height="10"></rect><rect x="80" y="460" width="20" height="10"></rect><rect x="110" y="460" width="10" height="10"></rect><rect x="140" y="460" width="30" height="10"></rect><rect x="200" y="460" width="10" height="10"></rect><rect x="220" y="460" width="20" height="10"></rect><rect x="260" y="460" width="50" height="10"></rect><rect x="330" y="460" width="30" height="10"></rect><rect x="440" y="460" width="10" height="10"></rect><rect x="460" y="460" width="20" height="10"></rect><rect x="0" y="470" width="10" height="10"></rect><rect x="60" y="470" width="10" height="10"></rect><rect x="90" y="470" width="10" height="10"></rect><rect x="110" y="470" width="40" height="10"></rect><rect x="170" y="470" width="10" height="10"></rect><rect x="190" y="470" width="30" height="10"></rect><rect x="240" y="470" width="10" height="10"></rect><rect x="270" y="470" width="20" height="10"></rect><rect x="300" y="470" width="10" height="10"></rect><rect x="320" y="470" width="20" height="10"></rect><rect x="350" y="470" width="20" height="10"></rect><rect x="390" y="470" width="30" height="10"></rect><rect x="430" y="470" width="10" height="10"></rect><rect x="460" y="470" width="10" height="10"></rect><rect x="0" y="480" width="70" height="10"></rect><rect x="130" y="480" width="10" height="10"></rect><rect x="150" y="480" width="10" height="10"></rect><rect x="220" y="480" width="10" height="10"></rect><rect x="240" y="480" width="10" height="10"></rect><rect x="310" y="480" width="10" height="10"></rect><rect x="330" y="480" width="50" height="10"></rect><rect x="390" y="480" width="10" height="10"></rect><rect x="410" y="480" width="10" height="10"></rect><rect x="430" y="480" width="10" height="10"></rect><rect x="460" y="480" width="30" height="10"></rect></svg>